<?xml version="1.0" encoding="utf-8"?>
<!-- Generator: Adobe Illustrator 22.0.0, SVG Export Plug-In . SVG Version: 6.00 Build 0)  -->
<svg version="1.1" id="Layer_1" xmlns="http://www.w3.org/2000/svg" xmlns:xlink="http://www.w3.org/1999/xlink" x="0px" y="0px"
	 viewBox="0 0 109.6 108.6" style="enable-background:new 0 0 109.6 108.6;" xml:space="preserve">
<style type="text/css">
	.st0{fill:#FFFFFF;}
</style>
<path class="st0" d="M98.6,47.3h-5.9c-2.9,0-5.5-1.7-6.5-4.5c-0.3-0.9-0.7-1.7-1.1-2.6c-1.2-2.6-0.6-5.7,1.4-7.8l4.2-4.2
	c2.7-2.7,2.7-7.2,0-9.9l0,0c-2.7-2.7-7.2-2.7-9.9,0l-4.2,4.2c-2,2-5.2,2.7-7.8,1.4c-0.8-0.4-1.7-0.7-2.6-1.1c-2.7-1-4.5-3.6-4.5-6.5
	v-5.9c0-3.9-3.1-7-7-7s-7,3.1-7,7v5.9c0,2.9-1.7,5.5-4.5,6.5c-0.9,0.3-1.7,0.7-2.6,1.1c-2.6,1.2-5.7,0.6-7.8-1.4l-4.2-4.2
	c-2.7-2.7-7.2-2.7-9.9,0l0,0c-2.7,2.7-2.7,7.2,0,9.9l4.2,4.2c2,2,2.7,5.2,1.4,7.8c-0.4,0.8-0.7,1.7-1.1,2.6c-1,2.7-3.6,4.5-6.5,4.5
	h-5.9c-3.9,0-7,3.1-7,7l0,0c0,3.9,3.1,7,7,7H17c2.9,0,5.5,1.7,6.5,4.5c0.3,0.9,0.7,1.7,1.1,2.6c1.2,2.6,0.6,5.7-1.4,7.8L19,80.4
	c-2.7,2.7-2.7,7.2,0,9.9l0,0c2.7,2.7,7.2,2.7,9.9,0L33,86c2-2,5.2-2.7,7.8-1.4c0.8,0.4,1.7,0.7,2.6,1.1c2.7,1,4.5,3.6,4.5,6.5v5.9
	c0,3.9,3.1,7,7,7s7-3.1,7-7v-5.9c0-2.9,1.7-5.5,4.5-6.5c0.9-0.3,1.7-0.7,2.6-1.1c2.6-1.2,5.7-0.6,7.8,1.4l4.2,4.2
	c2.7,2.7,7.2,2.7,9.9,0l0,0c2.7-2.7,2.7-7.2,0-9.9l-4.2-4.2c-2-2-2.7-5.2-1.4-7.8c0.4-0.8,0.7-1.7,1.1-2.6c1-2.7,3.6-4.5,6.5-4.5
	h5.9c3.9,0,7-3.1,7-7l0,0C105.6,50.4,102.4,47.3,98.6,47.3z M54.8,72.4c-10,0-18.1-8.1-18.1-18.1s8.1-18.1,18.1-18.1
	s18.1,8.1,18.1,18.1C72.9,64.3,64.8,72.4,54.8,72.4z"/>
</svg>
