<?xml version="1.0" encoding="utf-8"?>
<!-- Generator: Adobe Illustrator 22.0.0, SVG Export Plug-In . SVG Version: 6.00 Build 0)  -->
<svg version="1.1" xmlns="http://www.w3.org/2000/svg" xmlns:xlink="http://www.w3.org/1999/xlink" x="0px" y="0px"
	 viewBox="0 0 119.4 119.4" style="enable-background:new 0 0 119.4 119.4;" xml:space="preserve">
<style type="text/css">
	.st0{fill:#A63A62;}
	.st1{opacity:0.25;fill:#333333;}
	.st2{fill:#E84A74;}
</style>
<g id="Layer_2">
</g>
<g id="Layer_4">
	<g>
		<path class="st0" d="M91,119.4H28.4C12.7,119.4,0,106.7,0,91V28.4C0,12.7,12.7,0,28.4,0H91c15.7,0,28.3,12.7,28.3,28.3V91
			C119.4,106.7,106.7,119.4,91,119.4z"/>
	</g>
</g>
<g id="Layer_1">
	<polygon class="st1" points="78.7,117.8 59.7,98.8 76.5,27.6 116.9,68 113.1,103 97.6,114.8 	"/>
</g>
<g id="Layer_5">
	<path class="st2" d="M91,10c10.1,0,18.3,8.2,18.3,18.3V91c0,10.1-8.2,18.3-18.3,18.3H28.4C18.2,109.4,10,101.1,10,91V28.4
		C10,18.3,18.2,10,28.4,10H91 M91,0H28.4C12.7,0,0,12.7,0,28.4V91c0,15.7,12.7,28.3,28.3,28.3H91c15.7,0,28.3-12.7,28.3-28.3V28.4
		C119.4,12.7,106.7,0,91,0L91,0z"/>
</g>
<g id="Layer_3">
	<g>
		<path class="st2" d="M83.4,44.4c0,13.1-23.7,54.4-23.7,54.4S35.9,57.5,35.9,44.4s10.6-23.7,23.7-23.7S83.4,31.2,83.4,44.4z"/>
	</g>
	<g>
		<circle class="st0" cx="59.7" cy="44.4" r="16.2"/>
	</g>
	<path class="st1" d="M49.6,50.5c0-9,7.3-16.2,16.2-16.2c2.9,0,5.6,0.8,8,2.1c-2.8-4.9-8.1-8.2-14.1-8.2c-9,0-16.2,7.3-16.2,16.2
		c0,6.1,3.3,11.3,8.2,14.1C50.4,56.1,49.6,53.4,49.6,50.5z"/>
</g>
</svg>
