<?xml version="1.0" encoding="utf-8"?>
<!-- Generator: Adobe Illustrator 20.1.0, SVG Export Plug-In . SVG Version: 6.00 Build 0)  -->
<svg version="1.1" id="Layer_1" xmlns="http://www.w3.org/2000/svg" xmlns:xlink="http://www.w3.org/1999/xlink" x="0px" y="0px"
	 viewBox="0 0 1242 2208" style="enable-background:new 0 0 1242 2208;" xml:space="preserve">
<style type="text/css">
	.st0{fill:#FFFFFF;}
	.st1{fill:#FFE3E3;}
	.st2{fill:#FFD7D8;}
	.st3{fill:#FFF0F0;}
	.st4{fill:#FFD4D5;}
	.st5{fill:#FFECED;}
	.st6{fill:#FFF3F4;}
	.st7{fill:#FFDDDD;}
	.st8{fill:#FFDADA;}
	.st9{fill:#FFD3D4;}
	.st10{fill:#FFE7E8;}
	.st11{fill:#FFEDED;}
	.st12{fill:#FFFDFD;}
	.st13{fill:#FFE8E8;}
	.st14{fill:#FFDFE0;}
	.st15{fill:#FFF3F3;}
	.st16{fill:#FFD0D1;}
	.st17{fill:#FFF8F8;}
	.st18{fill:#FFF6F6;}
	.st19{fill:#FFE6E7;}
	.st20{fill:#FFC7C8;}
	.st21{fill:#FFB9BB;}
	.st22{fill:#FFEEEE;}
	.st23{fill:#FFE7E7;}
	.st24{fill:#FFCCCD;}
	.st25{fill:#FFC2C3;}
	.st26{fill:#FFE2E3;}
	.st27{fill:#FFB6B8;}
	.st28{fill:#FFE1E1;}
	.st29{fill:#FFE3E4;}
	.st30{fill:#FFDEDF;}
	.st31{fill:#FFB2B5;}
	.st32{fill:#FFD9D9;}
	.st33{fill:#FFD6D7;}
	.st34{fill:#FFB0B3;}
	.st35{fill:#FFBFC1;}
	.st36{fill:#FFC9CB;}
	.st37{fill:#FFD1D2;}
	.st38{fill:#FFC6C8;}
	.st39{fill:#FFCBCD;}
	.st40{fill:#FFCACC;}
	.st41{fill:#FEB1B4;}
	.st42{fill:#FDA6AA;}
	.st43{fill:#FFBCBF;}
	.st44{fill:#FFBCBE;}
	.st45{fill:#FFC8C9;}
	.st46{fill:#FFBBBD;}
	.st47{fill:#FFC0C2;}
	.st48{fill:#FEAEB2;}
	.st49{fill:#FEB0B3;}
	.st50{fill:#FC9EA3;}
	.st51{fill:#FFB6B9;}
	.st52{fill:#FDA3A8;}
	.st53{fill:#FB979D;}
	.st54{fill:#FB959B;}
	.st55{fill:#FD9FA3;}
	.st56{fill:#FA8B92;}
	.st57{fill:#FA9198;}
	.st58{fill:#F8858D;}
	.st59{fill:#FA9097;}
	.st60{fill:#FDA3A7;}
	.st61{fill:#FEABAF;}
	.st62{fill:#FFFEFE;}
	.st63{fill:#FFFAFA;}
	.st64{fill:#FFF2F2;}
	.st65{fill:#FFCECF;}
	.st66{fill:#FFC1C3;}
	.st67{fill:#FFBEC0;}
	.st68{fill:#FFB4B7;}
	.st69{fill:#FFCBCC;}
	.st70{fill:#FFDFDF;}
	.st71{fill:#FFE8E9;}
	.st72{fill:#FFF7F7;}
	.st73{fill:#FFFBFB;}
</style>
<path class="st0" d="M619,332l118,13l109-126L619,332z"/>
<path class="st0" d="M846,219l73,173l174-230L846,219z"/>
<path class="st0" d="M919,392l217-149l-43-81L919,392z"/>
<path class="st1" d="M325,433l124-274l-258-34L325,433z"/>
<path class="st2" d="M73,388l252,45L191,125L73,388z"/>
<path class="st3" d="M325,433l294-101L449,159L325,433z"/>
<path class="st0" d="M737,345l182,47l-73-173L737,345z"/>
<path class="st0" d="M919,392l227,95l-10-244L919,392z"/>
<path class="st4" d="M105,530l220-97L73,388L105,530z"/>
<path class="st0" d="M795,613l124-221l-182-47L795,613z"/>
<path class="st5" d="M325,433l7,151l287-252L325,433z"/>
<path class="st6" d="M332,584l217,133l70-385L332,584z"/>
<path class="st0" d="M795,613l-58-268l-118-13L795,613z"/>
<path class="st0" d="M549,717l246-104L619,332L549,717z"/>
<path class="st0" d="M1020,688l126-201l-227-95L1020,688z"/>
<path class="st7" d="M105,530l227,54l-7-151L105,530z"/>
<path class="st0" d="M795,613l225,75L919,392L795,613z"/>
<path class="st0" d="M1020,688l190-16l-64-185L1020,688z"/>
<path class="st8" d="M235,920l97-336l-227-54L235,920z"/>
<path class="st9" d="M123,925l112-5L105,530L123,925z"/>
<path class="st0" d="M549,717l201,130l45-234L549,717z"/>
<path class="st10" d="M235,920l314-203L332,584L235,920z"/>
<path class="st11" d="M235,920l275-11l39-192L235,920z"/>
<path class="st0" d="M750,847l270-159l-225-75L750,847z"/>
<path class="st0" d="M750,847l279,18l-9-177L750,847z"/>
<path class="st0" d="M1029,865l190-36l-199-141L1029,865z"/>
<path class="st0" d="M1020,688l199,141l-9-157L1020,688z"/>
<path class="st12" d="M510,909l240-62L549,717L510,909z"/>
<path class="st13" d="M235,920l148,139l127-150L235,920z"/>
<path class="st0" d="M790,1001l239-136l-279-18L790,1001z"/>
<path class="st0" d="M510,909l280,92l-40-154L510,909z"/>
<path class="st0" d="M1029,865l192,234l-2-270L1029,865z"/>
<path class="st14" d="M228,999l155,60L235,920L228,999z"/>
<path class="st0" d="M790,1001l279,212l-40-348L790,1001z"/>
<path class="st0" d="M1069,1213l152-114l-192-234L1069,1213z"/>
<path class="st2" d="M123,925l105,74l7-79L123,925z"/>
<path class="st0" d="M585,1321l205-320l-280-92L585,1321z"/>
<path class="st15" d="M383,1059l202,262l-75-412L383,1059z"/>
<path class="st16" d="M15,1184l213-185l-105-74L15,1184z"/>
<path class="st17" d="M972,1438l97-225l-279-212L972,1438z"/>
<path class="st1" d="M368,1320l15-261l-155-60L368,1320z"/>
<path class="st4" d="M15,1184l353,136L228,999L15,1184z"/>
<path class="st18" d="M585,1321l387,117l-182-437L585,1321z"/>
<path class="st5" d="M631,1406l341,32l-387-117L631,1406z"/>
<path class="st19" d="M368,1320l217,1l-202-262L368,1320z"/>
<path class="st20" d="M153,1494l215-174L15,1184L153,1494z"/>
<path class="st21" d="M39,1459l114,35L15,1184L39,1459z"/>
<path class="st10" d="M771,1551l201-113l-341-32L771,1551z"/>
<path class="st22" d="M972,1438l145-6l-48-219L972,1438z"/>
<path class="st23" d="M631,1406l-46-85l-217-1L631,1406z"/>
<path class="st7" d="M524,1673l107-267l-263-86L524,1673z"/>
<path class="st24" d="M153,1494l371,179l-156-353L153,1494z"/>
<path class="st25" d="M377,1772l147-99l-371-179L377,1772z"/>
<path class="st26" d="M524,1673l247-122l-140-145L524,1673z"/>
<path class="st27" d="M125,1643l252,129l-224-278L125,1643z"/>
<path class="st28" d="M771,1551l251,153l-50-266L771,1551z"/>
<path class="st29" d="M972,1438l50,266l95-272L972,1438z"/>
<path class="st30" d="M1022,1704l204-48l-109-224L1022,1704z"/>
<path class="st31" d="M125,1643l28-149l-114-35L125,1643z"/>
<path class="st32" d="M957,1791l65-87l-251-153L957,1791z"/>
<path class="st33" d="M750,1813l207-22l-186-240L750,1813z"/>
<path class="st32" d="M524,1673l226,140l21-262L524,1673z"/>
<path class="st4" d="M1022,1704l171,172l33-220L1022,1704z"/>
<path class="st34" d="M238,1861l139-89l-252-129L238,1861z"/>
<path class="st35" d="M377,1772l68,257l79-356L377,1772z"/>
<path class="st36" d="M445,2029l305-216l-226-140L445,2029z"/>
<path class="st37" d="M957,1791l236,85l-171-172L957,1791z"/>
<path class="st38" d="M445,2029l318-9l-13-207L445,2029z"/>
<path class="st39" d="M750,1813l145,187l62-209L750,1813z"/>
<path class="st40" d="M895,2000l298-124l-236-85L895,2000z"/>
<path class="st41" d="M238,1861l207,168l-68-257L238,1861z"/>
<path class="st38" d="M763,2020l132-20l-145-187L763,2020z"/>
<path class="st42" d="M346,2190l99-161l-207-168L346,2190z"/>
<polygon class="st36" points="0,83.2 0,259.9 73,388 191,125 "/>
<polygon class="st43" points="0,259.9 0,354.3 73,388 "/>
<polygon class="st44" points="0,354.3 0,426.5 73,388 "/>
<polygon class="st38" points="0,514.4 105,530 73,388 0,426.5 "/>
<polygon class="st45" points="0,715.9 123,925 105,530 0,514.4 "/>
<polygon class="st46" points="0,715.9 0,898.7 123,925 "/>
<polygon class="st47" points="0,969.5 0,1178.5 15,1184 123,925 "/>
<polygon class="st48" points="0,1178.5 0,1193.7 15,1184 "/>
<polygon class="st49" points="0,1444.3 39,1459 15,1184 0,1193.7 "/>
<polygon class="st50" points="0,1444.3 0,1492.1 39,1459 "/>
<polygon class="st51" points="0,898.7 0,969.5 123,925 "/>
<polygon class="st52" points="0,1647.7 125,1643 39,1459 0,1492.1 "/>
<polygon class="st53" points="0,1647.7 0,1688.7 125,1643 "/>
<polygon class="st54" points="0,1688.7 0,1751.7 125,1643 "/>
<polygon class="st55" points="0,1848.5 238,1861 125,1643 0,1751.7 "/>
<polygon class="st56" points="0,1848.5 0,2126.4 238,1861 "/>
<polygon class="st57" points="0,2198.4 346,2190 238,1861 0,2126.4 "/>
<polygon class="st58" points="333.3,2208 346,2190 0,2198.4 0,2208 "/>
<polygon class="st59" points="352.7,2208 346,2190 333.3,2208 "/>
<polygon class="st60" points="484.6,2208 346,2190 352.7,2208 "/>
<polygon class="st61" points="648.6,2208 445,2029 346,2190 484.6,2208 "/>
<polygon class="st44" points="687.1,2208 763,2020 445,2029 648.6,2208 "/>
<polygon class="st51" points="883.7,2208 763,2020 687.1,2208 "/>
<polygon class="st51" points="1181.6,2208 895,2000 929.8,2208 "/>
<polygon class="st46" points="929.8,2208 895,2000 763,2020 883.7,2208 "/>
<polygon class="st47" points="1204.4,2208 1193,1876 895,2000 1181.6,2208 "/>
<polygon class="st0" points="1242,228.5 1136,243 1146,487 1242,409.2 "/>
<polygon class="st0" points="1242,409.2 1146,487 1242,459.3 "/>
<polygon class="st0" points="1242,459.3 1146,487 1242,567 "/>
<polygon class="st0" points="1242,567 1146,487 1210,672 1242,678.2 "/>
<polygon class="st0" points="1242,678.2 1210,672 1219,829 1242,815.3 "/>
<polygon class="st0" points="1242,815.3 1219,829 1242,847.6 "/>
<polygon class="st0" points="1242,847.6 1219,829 1221,1099 1242,1089.1 "/>
<polygon class="st62" points="1242,1089.1 1221,1099 1242,1126 "/>
<polygon class="st63" points="1242,1126 1221,1099 1069,1213 1242,1249.6 "/>
<polygon class="st64" points="1242,1249.6 1069,1213 1117,1432 1242,1349.7 "/>
<polygon class="st13" points="1242,1349.7 1117,1432 1226,1656 1242,1609.3 "/>
<polygon class="st1" points="1242,1609.3 1226,1656 1242,1656.4 "/>
<polygon class="st9" points="1242,1656.4 1226,1656 1242,1689.4 "/>
<polygon class="st65" points="1242,1689.4 1226,1656 1193,1876 1242,1899.7 "/>
<polygon class="st66" points="1242,1916.6 1193,1876 1204.4,2208 1213.2,2208 1242,2148.5 "/>
<polygon class="st20" points="1242,1899.7 1193,1876 1242,1916.6 "/>
<polygon class="st67" points="1242,2148.5 1213.2,2208 1232,2208 1242,2201.7 "/>
<polygon class="st68" points="1242,2201.7 1232,2208 1242,2208 "/>
<polygon class="st69" points="0,0 0,83.2 191,125 151,0 "/>
<polygon class="st4" points="151,0 191,125 191,0 "/>
<polygon class="st70" points="191,0 191,125 449,159 293,0 "/>
<polygon class="st71" points="293,0 449,159 475.3,0 "/>
<polygon class="st72" points="475.3,0 449,159 650,0 "/>
<polygon class="st73" points="650,0 449,159 619,332 666.8,0 "/>
<polygon class="st0" points="666.8,0 619,332 846,219 680.3,0 "/>
<polygon class="st0" points="680.3,0 846,219 899.8,0 "/>
<polygon class="st0" points="899.8,0 846,219 1093,162 996.5,0 "/>
<polygon class="st0" points="996.5,0 1093,162 1139.1,0 "/>
<polygon class="st0" points="1150.1,0 1136,243 1242,228.5 1242,11.1 1225.6,0 "/>
<polygon class="st0" points="1225.6,0 1242,11.1 1242,0 "/>
<polygon class="st0" points="1139.1,0 1093,162 1136,243 1150.1,0 "/>
</svg>
