<?xml version="1.0" encoding="utf-8"?>
<!-- Generator: Adobe Illustrator 20.1.0, SVG Export Plug-In . SVG Version: 6.00 Build 0)  -->
<svg version="1.1" id="Layer_1" xmlns="http://www.w3.org/2000/svg" xmlns:xlink="http://www.w3.org/1999/xlink" x="0px" y="0px"
	 viewBox="0 0 436.4 431.9" style="enable-background:new 0 0 436.4 431.9;" xml:space="preserve">
<style type="text/css">
	.st0{fill:#E63259;}
	.st1{fill:#C73F6B;}
	.st2{fill:#E84974;}
</style>
<path class="st0" d="M219.6,25c51.2,0,99.4,20,135.6,56.2c36.2,36.2,56.2,84.4,56.2,135.6s-20,99.4-56.2,135.6
	c-36.2,36.2-84.4,56.2-135.6,56.2s-99.4-20-135.6-56.2C47.8,316.2,27.8,268,27.8,216.8s20-99.4,56.2-135.6
	C120.2,45,168.4,25,219.6,25 M219.6,0C99.9,0,2.8,97.1,2.8,216.8s97.1,216.8,216.8,216.8s216.8-97.1,216.8-216.8S339.4,0,219.6,0
	L219.6,0z"/>
<polygon class="st1" points="115,324.6 115,109 324.3,216.8 "/>
<polygon class="st2" points="115,324.6 115,109 231.7,216.8 "/>
</svg>
