<?xml version="1.0" encoding="utf-8"?>
<!-- Generator: Adobe Illustrator 21.0.2, SVG Export Plug-In . SVG Version: 6.00 Build 0)  -->
<svg version="1.1" id="Layer_1" xmlns="http://www.w3.org/2000/svg" xmlns:xlink="http://www.w3.org/1999/xlink" x="0px" y="0px"
	 viewBox="0 0 300 300" style="enable-background:new 0 0 300 300;" xml:space="preserve">
<style type="text/css">
	.st0{fill:#DF5C5C;}
</style>
<g>
	<path class="st0" d="M165.7,190.6L165.7,190.6c-2.7,2.4-6.9,2.1-9.3-0.7l-15.7-18.2c-2.4-2.7-2.1-6.9,0.7-9.3h0
		c2.7-2.4,6.9-2.1,9.3,0.7l15.7,18.2C168.8,184.1,168.5,188.3,165.7,190.6z"/>
</g>
<g>
	<path class="st0" d="M149.5,215.3L149.5,215.3c-3.4-1.4-5-5.2-3.6-8.6l9.1-22.2c1.4-3.4,5.2-5,8.6-3.6l0,0c3.4,1.4,5,5.2,3.6,8.6
		l-9.1,22.2C156.7,215,152.8,216.6,149.5,215.3z"/>
</g>
<g>
	<path class="st0" d="M141.1,198.4L141.1,198.4c-3.6-0.5-6.1-3.9-5.6-7.4l3.4-23.8c0.5-3.6,3.9-6.1,7.4-5.6l0,0
		c3.6,0.5,6.1,3.9,5.6,7.4l-3.4,23.8C148,196.3,144.7,198.9,141.1,198.4z"/>
</g>
<g>
	<path class="st0" d="M111.8,202.3L111.8,202.3c-1.2-3.4,0.7-7.2,4.1-8.4l22.7-7.8c3.4-1.2,7.2,0.7,8.4,4.1v0
		c1.2,3.4-0.7,7.2-4.1,8.4l-22.7,7.8C116.8,207.6,113,205.8,111.8,202.3z"/>
</g>
<g>
	<path class="st0" d="M155.9,147.5L155.9,147.5c-1.1-2.8,0.3-6,3.1-7.1l18.7-7.3c2.8-1.1,6,0.3,7.1,3.1l0,0c1.1,2.8-0.3,6-3.1,7.1
		l-18.7,7.3C160.2,151.7,157,150.3,155.9,147.5z"/>
</g>
<g>
	<path class="st0" d="M141,127.9L141,127.9c2-2.3,5.5-2.4,7.8-0.4l14.9,13.4c2.3,2,2.4,5.5,0.4,7.8v0c-2,2.3-5.5,2.4-7.8,0.4
		l-14.9-13.4C139.2,133.6,139,130.1,141,127.9z"/>
</g>
<g>
	<path class="st0" d="M123.5,130.6L123.5,130.6c2.8,1.2,4.1,4.4,2.9,7.2l-7.9,18.4c-1.2,2.8-4.4,4.1-7.2,2.9h0
		c-2.8-1.2-4.1-4.4-2.9-7.2l7.9-18.4C117.5,130.7,120.8,129.4,123.5,130.6z"/>
</g>
<g>
	<path class="st0" d="M148,133.7L148,133.7c0.2,3-2.1,5.6-5.1,5.8l-20,1.3c-3,0.2-5.6-2.1-5.8-5.1v0c-0.2-3,2.1-5.6,5.1-5.8l20-1.3
		C145.1,128.4,147.8,130.7,148,133.7z"/>
</g>
<path class="st0" d="M147,169L147,169c-5,0-9-4.1-9-9v-28c0-4.9,4.1-9,9-9h0c4.9,0,9,4,9,9v28C156,164.9,151.9,169,147,169z"/>
<circle class="st0" cx="149" cy="106" r="11"/>
<path class="st0" d="M114,180H78c-1.7,0-3-1.4-3-3l0,0c0-1.6,1.3-3,3-3h36c1.7,0,3,1.4,3,3l0,0C117,178.6,115.7,180,114,180z"/>
<path class="st0" d="M126,169H90c-1.7,0-3-1.4-3-3l0,0c0-1.6,1.3-3,3-3h36c1.7,0,3,1.4,3,3l0,0C129,167.6,127.7,169,126,169z"/>
<path class="st0" d="M101,159H65c-1.7,0-3-1.4-3-3l0,0c0-1.6,1.3-3,3-3h36c1.7,0,3,1.4,3,3l0,0C104,157.6,102.7,159,101,159z"/>
</svg>
