<?xml version="1.0" encoding="utf-8"?>
<!-- Generator: Adobe Illustrator 21.0.2, SVG Export Plug-In . SVG Version: 6.00 Build 0)  -->
<svg version="1.1" id="Layer_1" xmlns="http://www.w3.org/2000/svg" xmlns:xlink="http://www.w3.org/1999/xlink" x="0px" y="0px"
	 viewBox="0 0 300 300" style="enable-background:new 0 0 300 300;" xml:space="preserve">
<style type="text/css">
	.st0{fill:#DF5C5C;}
	.st1{font-family:'Rockwell';}
	.st2{font-size:20px;}
</style>
<path class="st0" d="M70,175L70,175c-1.1,0-2-0.9-2-2v-35c0-1.1,0.9-2,2-2l0,0c1.1,0,2,0.9,2,2v35C72,174.1,71.1,175,70,175z"/>
<path class="st0" d="M260,175L260,175c-1.1,0-2-0.9-2-2v-35c0-1.1,0.9-2,2-2l0,0c1.1,0,2,0.9,2,2v35C262,174.1,261.1,175,260,175z"
	/>
<path class="st0" d="M260.5,157h-189c-0.8,0-1.5-0.7-1.5-1.5l0,0c0-0.8,0.7-1.5,1.5-1.5h189c0.8,0,1.5,0.7,1.5,1.5l0,0
	C262,156.3,261.3,157,260.5,157z"/>
<path class="st0" d="M245,142H85c-0.6,0-1-0.4-1-1l0,0c0-0.6,0.4-1,1-1h160c0.6,0,1,0.4,1,1l0,0C246,141.6,245.6,142,245,142z"/>
<path class="st0" d="M96.4,132.2L96.4,132.2c-0.4-0.3-1-0.3-1.4,0l-11.3,8.2c-0.4,0.3-0.4,0.7,0,1l0,0c0.4,0.3,1,0.3,1.4,0l11.3-8.2
	C96.8,133,96.8,132.5,96.4,132.2z"/>
<path class="st0" d="M83.6,140.6L83.6,140.6c-0.4,0.3-0.4,0.8,0,1.1l11.3,9.1c0.4,0.3,1,0.3,1.4,0l0,0c0.4-0.3,0.4-0.8,0-1.1
	l-11.3-9.1C84.7,140.3,84,140.3,83.6,140.6z"/>
<path class="st0" d="M246.4,140.6L246.4,140.6c-0.4-0.3-1-0.3-1.4,0l-11.3,9.1c-0.4,0.3-0.4,0.8,0,1.1h0c0.4,0.3,1,0.3,1.4,0
	l11.3-9.1C246.8,141.4,246.8,140.9,246.4,140.6z"/>
<path class="st0" d="M233.6,132.2L233.6,132.2c-0.4,0.3-0.4,0.7,0,1l11.3,8.2c0.4,0.3,1,0.3,1.4,0h0c0.4-0.3,0.4-0.7,0-1l-11.3-8.2
	C234.7,131.9,234,131.9,233.6,132.2z"/>
<text transform="matrix(0.9631 0 0 1 152 136)" class="st0 st1 st2">m</text>
</svg>
